<?xml version="1.0" standalone="no"?>
<!DOCTYPE svg PUBLIC "-//W3C//DTD SVG 20010904//EN"
 "http://www.w3.org/TR/2001/REC-SVG-20010904/DTD/svg10.dtd">
<svg version="1.0" xmlns="http://www.w3.org/2000/svg"
 width="430.000000pt" height="430.000000pt" viewBox="0 0 430.000000 430.000000"
 preserveAspectRatio="xMidYMid meet">
<metadata>
Created by potrace 1.14, written by Peter Selinger 2001-2017
</metadata>
<g transform="translate(0.000000,430.000000) scale(0.100000,-0.100000)"
fill="#000000" stroke="none">
<path d="M2095 3920 c-3 -5 -35 -10 -70 -10 -82 0 -152 -36 -239 -122 -79 -78
-116 -149 -115 -215 1 -26 -4 -67 -12 -90 -12 -38 -11 -55 10 -154 21 -104 22
-112 6 -129 -13 -14 -16 -28 -11 -54 11 -56 26 -53 27 6 l2 53 10 -69 c8 -54
7 -70 -4 -76 -10 -7 -10 -11 0 -24 32 -38 38 -19 37 122 0 114 3 144 19 177
l18 40 6 -31 6 -31 30 18 c85 52 115 57 188 35 44 -13 47 -13 47 4 0 27 -57
57 -133 72 -63 12 -66 14 -61 38 5 24 14 48 36 96 5 11 35 38 66 58 54 36 60
37 129 34 40 -2 73 0 73 5 0 18 61 4 110 -25 60 -37 99 -95 95 -143 -1 -16 2
-38 7 -47 7 -14 4 -18 -14 -22 -13 -2 -49 -9 -82 -15 -60 -11 -86 -25 -86 -46
0 -9 22 -12 83 -11 65 1 88 -3 110 -18 15 -10 27 -24 27 -31 0 -8 9 -17 20
-20 11 -3 20 -11 20 -16 0 -18 30 -41 45 -35 17 6 20 -9 4 -19 -7 -5 -5 -13 6
-25 10 -11 14 -30 12 -53 -4 -39 -15 -56 -58 -98 -21 -21 -25 -29 -16 -39 9
-10 7 -11 -10 -5 -19 5 -23 2 -23 -14 0 -22 14 -28 25 -11 14 22 26 8 24 -27
-2 -39 -55 -153 -70 -153 -5 0 -9 -5 -9 -11 0 -18 -30 -41 -45 -35 -12 4 -12
10 0 40 9 20 24 51 35 68 23 38 25 48 7 48 -18 0 -74 -117 -81 -171 -6 -38
-15 -54 -49 -85 -42 -39 -42 -39 -122 -38 -63 1 -83 -2 -92 -15 -11 -14 -12
-14 -13 4 -1 11 -4 14 -7 8 -8 -21 -27 -15 -64 20 -54 50 -89 97 -89 118 0 21
-38 64 -48 54 -3 -3 -14 14 -23 37 -25 60 -24 30 1 -34 11 -28 38 -71 61 -94
l41 -42 12 -134 c11 -131 11 -134 -13 -193 -24 -60 -24 -60 -8 -144 9 -46 30
-113 47 -148 34 -70 48 -85 24 -24 -15 37 -14 43 4 92 l19 52 21 -31 c12 -16
22 -35 22 -41 0 -6 5 -11 10 -11 30 0 -10 135 -58 192 -8 10 -11 25 -7 39 4
13 3 19 -3 15 -12 -7 -21 49 -11 66 4 7 10 10 12 8 10 -13 47 -102 47 -114 0
-24 40 -104 55 -109 26 -11 26 12 1 56 -15 24 -26 46 -26 49 0 4 14 11 30 17
36 12 38 28 8 42 -24 11 -78 79 -78 98 0 6 4 11 9 11 5 0 11 7 13 16 2 13 22
16 111 19 l107 3 77 57 c71 54 77 57 90 40 7 -11 13 -26 13 -34 0 -9 7 -29 15
-45 8 -15 12 -32 9 -37 -3 -5 -1 -9 5 -9 6 0 13 -11 17 -24 3 -14 14 -32 24
-41 18 -16 19 -15 34 14 14 26 21 29 48 26 18 -2 34 -9 36 -15 2 -5 9 -10 16
-10 22 0 46 -35 46 -66 0 -34 -45 -115 -92 -165 -18 -19 -64 -72 -101 -116
-37 -44 -96 -103 -130 -130 -79 -64 -260 -183 -279 -183 -7 0 -39 26 -70 58
-134 137 -170 214 -170 363 0 64 6 108 16 134 l16 37 -23 -14 c-12 -8 -51 -32
-87 -53 -36 -21 -99 -60 -140 -85 -88 -55 -126 -75 -197 -101 -39 -15 -61 -32
-92 -73 -23 -29 -41 -58 -41 -65 0 -6 -9 -29 -19 -50 -22 -43 -35 -147 -52
-421 -12 -192 -9 -245 18 -345 11 -39 18 -113 20 -210 5 -193 5 -192 -3 -243
-5 -34 -2 -47 12 -63 16 -18 16 -23 4 -42 -10 -16 -14 -68 -16 -194 l-2 -171
60 -27 c409 -184 927 -223 1386 -105 182 46 452 158 452 187 0 9 6 12 18 9 35
-12 270 149 436 298 l89 80 -7 120 c-12 231 -58 522 -111 698 -8 29 -22 93
-30 142 -20 114 -70 257 -110 312 -89 123 -107 142 -157 169 -29 15 -87 52
-128 80 -201 140 -407 246 -558 289 -58 16 -102 62 -113 117 -19 101 -4 257
31 321 6 10 10 29 10 43 0 14 6 28 14 31 7 3 16 23 20 45 4 25 12 39 21 39 17
0 20 16 5 25 -6 4 -3 16 7 32 15 23 18 24 29 9 9 -13 13 -14 18 -4 3 7 3 -7 0
-32 -7 -60 12 -32 21 31 8 52 -7 73 -30 43 -8 -11 -15 -14 -15 -7 0 6 5 15 10
18 6 3 10 19 10 35 0 16 4 40 9 53 5 14 14 74 20 133 12 135 2 207 -34 244
-15 15 -27 34 -29 43 -1 8 -21 42 -44 75 -41 58 -103 102 -144 102 -9 0 -36
11 -59 25 -56 31 -74 31 -106 -1 -14 -14 -26 -24 -27 -22 -1 2 -7 15 -14 31
-10 23 -17 27 -51 27 -22 0 -43 -4 -46 -10z m-299 -528 c-18 -16 -18 -16 -6 6
6 13 14 21 18 18 3 -4 -2 -14 -12 -24z m166 -937 c-7 -40 -27 -23 -29 26 -1
44 -1 44 17 22 11 -14 16 -32 12 -48z m1258 -1986 c0 -21 -40 -89 -53 -89 -5
0 -6 3 -4 8 3 4 10 33 17 65 10 48 14 56 26 46 8 -6 14 -20 14 -30z"/>
<path d="M1865 3313 c-21 -5 -55 -32 -55 -43 0 -4 18 -15 40 -25 37 -17 121
-18 137 -1 14 14 -7 16 -57 5 -37 -8 -55 -8 -63 0 -16 16 14 23 83 19 64 -3
75 6 42 35 -18 17 -80 21 -127 10z"/>
<path d="M2233 3295 c-27 -19 -30 -35 -7 -35 10 0 14 -6 10 -15 -4 -10 3 -17
22 -21 15 -3 34 -8 44 -10 9 -3 19 0 23 6 3 6 -3 10 -17 10 -13 0 -30 5 -38
10 -20 13 69 14 104 1 28 -11 50 6 40 32 -7 20 -22 25 -97 32 -48 5 -67 3 -84
-10z"/>
<path d="M2037 3260 c-19 -22 -22 -40 -8 -40 11 0 41 39 41 52 0 14 -15 8 -33
-12z"/>
<path d="M1989 3123 c-13 -15 -12 -15 9 -4 23 12 28 21 13 21 -5 0 -15 -7 -22
-17z"/>
<path d="M2203 3100 c14 -38 1 -55 -34 -42 -13 5 -34 6 -46 1 -12 -4 -38 -3
-58 2 -19 6 -45 7 -55 4 -15 -5 -23 0 -29 17 -9 21 -10 21 -10 3 -1 -25 8 -38
34 -53 17 -10 18 -11 3 -12 -10 0 -18 -4 -18 -10 0 -5 18 -10 40 -10 22 0 40
5 40 10 0 6 9 10 20 10 11 0 20 -4 20 -9 0 -10 90 -35 98 -27 3 3 -15 15 -39
27 -43 20 -43 20 -10 15 24 -4 40 -1 53 10 21 20 22 33 6 69 -16 35 -29 31
-15 -5z"/>
<path d="M2573 3044 c-18 -18 -17 -45 1 -38 18 7 26 27 18 41 -5 7 -11 6 -19
-3z"/>
<path d="M1865 2996 c-9 -14 -15 -35 -13 -48 3 -20 6 -18 21 17 14 30 20 36
27 25 5 -8 6 -26 3 -40 -5 -27 43 -117 82 -153 19 -18 19 -18 1 -13 -16 6 -17
4 -6 -9 30 -36 147 -41 210 -10 14 7 36 34 48 59 13 25 30 49 38 54 9 5 16 23
16 42 l1 33 18 -22 c23 -29 36 -8 15 24 -19 28 -28 30 -56 13 -16 -11 -22 -9
-34 7 -9 11 -16 15 -16 9 0 -5 7 -19 15 -30 20 -26 19 -36 -4 -29 -17 5 -164
26 -201 28 -8 0 -40 -2 -70 -6 -53 -7 -54 -7 -34 10 12 10 30 24 40 31 18 12
18 13 -3 8 -13 -2 -26 0 -29 5 -3 5 -10 7 -15 3 -5 -3 -16 -1 -24 6 -11 9 -17
6 -30 -14z m308 -92 c27 -7 52 -16 56 -19 8 -9 -30 -36 -41 -29 -5 3 -15 -1
-21 -9 -7 -9 -28 -18 -47 -20 -33 -4 -33 -4 8 -5 42 -2 56 -15 26 -26 -9 -3
-38 -6 -65 -6 -36 0 -51 4 -56 16 -3 9 0 20 8 25 11 7 11 9 -3 9 -10 0 -17 5
-15 11 1 6 -6 13 -16 14 -10 2 -25 9 -33 16 -44 36 91 52 199 23z"/>
<path d="M2138 2853 c7 -3 16 -2 19 1 4 3 -2 6 -13 5 -11 0 -14 -3 -6 -6z"/>
<path d="M2596 2993 c-6 -14 -5 -15 5 -6 7 7 10 15 7 18 -3 3 -9 -2 -12 -12z"/>
<path d="M1810 2905 c0 -14 50 -114 60 -120 16 -10 12 7 -10 40 -11 17 -20 37
-20 46 0 9 -7 22 -15 29 -8 7 -15 9 -15 5z"/>
<path d="M1970 1951 c0 -5 5 -13 10 -16 6 -3 10 -2 10 4 0 5 -4 13 -10 16 -5
3 -10 2 -10 -4z"/>
<path d="M2021 1864 c0 -11 3 -14 6 -6 3 7 2 16 -1 19 -3 4 -6 -2 -5 -13z"/>
</g>
</svg>
